<svg width="52" height="39" viewBox="0 0 52 39" fill="none" xmlns="http://www.w3.org/2000/svg">
<g clip-path="url(#clip0_66_172)">
<path d="M23.2504 39H-1.25465e-05V19.3221C-0.102234 16.4994 0.513843 13.6962 1.79215 11.1678C2.93316 9.07304 4.5153 7.24249 6.4327 5.79866C8.36964 4.34932 10.5116 3.1871 12.7905 2.349C15.13 1.45414 17.4401 0.680089 19.7206 0.026845L23.1278 6.15436C21.6055 6.71009 20.1234 7.36708 18.6916 8.12081C17.5867 8.6992 16.5723 9.43157 15.6797 10.2953C14.9165 11.057 14.3306 11.973 13.9625 12.9799C13.5805 14.1248 13.3985 15.3253 13.4242 16.5302H23.2504V39ZM52 39H28.8313V19.3221C28.6967 16.7204 29.2099 14.1256 30.3263 11.7639C31.4428 9.40218 33.1285 7.34509 35.2368 5.77181C37.1637 4.3186 39.2996 3.15597 41.5741 2.32215C43.9046 1.4273 46.2124 0.653248 48.4974 3.91725e-06L51.9795 6.12752C50.4557 6.68462 48.9714 7.34157 47.5366 8.09396C46.4348 8.67407 45.4229 9.40631 44.5315 10.2685C43.7683 11.0302 43.1824 11.9462 42.8143 12.953C42.4299 14.0976 42.2456 15.2981 42.2692 16.5034H52V39Z" fill="#FEB702" fill-opacity="0.55"/>
</g>
<defs>
<clipPath id="clip0_66_172">
<rect width="52" height="39" fill="white" transform="translate(52 39) rotate(-180)"/>
</clipPath>
</defs>
</svg>
