<svg width="11" height="13" viewBox="0 0 11 13" fill="none" xmlns="http://www.w3.org/2000/svg">
<path d="M5.49901 0C3.0115 0 0.987793 2.02222 0.987793 4.5076C0.987793 6.9 5.0809 12.4895 5.25518 12.7262L5.41783 12.9474C5.43685 12.9733 5.46714 12.9885 5.49901 12.9885C5.53137 12.9885 5.56146 12.9733 5.58068 12.9474L5.74323 12.7262C5.91761 12.4895 10.0106 6.9 10.0106 4.5076C10.0106 2.02222 7.98659 0 5.49901 0ZM5.49901 2.89299C6.39029 2.89299 7.11505 3.61714 7.11505 4.5076C7.11505 5.39761 6.39026 6.12222 5.49901 6.12222C4.60825 6.12222 3.88297 5.39761 3.88297 4.5076C3.88297 3.61714 4.60822 2.89299 5.49901 2.89299Z" fill="#2167A7"/>
</svg>
