<svg width="23" height="22" viewBox="0 0 23 22" fill="none" xmlns="http://www.w3.org/2000/svg">
<path d="M5.78207 12.3135V10.7653H18.0217V12.3135H5.78207ZM5.78207 16.9579V15.4098H14.3192V16.9579H5.78207ZM2.72217 21.0863C2.23259 21.0863 1.8042 20.9315 1.43701 20.6219C1.06982 20.3122 0.88623 19.951 0.88623 19.5382V3.54063C0.88623 3.12779 1.06982 2.76656 1.43701 2.45693C1.8042 2.1473 2.23259 1.99248 2.72217 1.99248H4.71111V0.444336H6.70004V1.99248H17.1037V0.444336H19.0926V1.99248H21.0816C21.5712 1.99248 21.9995 2.1473 22.3667 2.45693C22.7339 2.76656 22.9175 3.12779 22.9175 3.54063V19.5382C22.9175 19.951 22.7339 20.3122 22.3667 20.6219C21.9995 20.9315 21.5712 21.0863 21.0816 21.0863H2.72217ZM2.72217 19.5382H21.0816V8.4431H2.72217V19.5382ZM2.72217 6.89495H21.0816V3.54063H2.72217V6.89495ZM2.72217 6.89495V3.54063V6.89495Z" fill="white"/>
</svg>
