<svg width="22" height="20" viewBox="0 0 22 20" fill="none" xmlns="http://www.w3.org/2000/svg">
<g clip-path="url(#clip0_66_246)">
<path d="M11.0977 0C7.08304 0 3.81689 3.04405 3.81689 6.78532C3.81689 10.3866 10.4229 18.8005 10.7042 19.1568L10.9667 19.4897C10.9974 19.5289 11.0463 19.5517 11.0977 19.5517C11.15 19.5517 11.1985 19.5289 11.2296 19.4897L11.4919 19.1568C11.7734 18.8005 18.3792 10.3866 18.3792 6.78532C18.3792 3.04405 15.1126 0 11.0977 0ZM11.0977 4.35483C12.5362 4.35483 13.7059 5.4449 13.7059 6.78532C13.7059 8.12505 12.5362 9.21581 11.0977 9.21581C9.66011 9.21581 8.48955 8.12505 8.48955 6.78532C8.48955 5.4449 9.66006 4.35483 11.0977 4.35483Z" fill="#2167A7"/>
</g>
<defs>
<clipPath id="clip0_66_246">
<rect width="20.9813" height="19.5517" fill="white" transform="translate(0.607422)"/>
</clipPath>
</defs>
</svg>
