<svg width="25" height="26" viewBox="0 0 25 26" fill="none" xmlns="http://www.w3.org/2000/svg">
<path d="M24.4206 22.4104L18.8062 16.3845C20.0829 14.3502 20.7129 11.8084 20.3756 9.10001C19.8006 4.49322 16.2828 0.744267 11.9864 0.160452C5.5985 -0.707089 0.227054 5.05806 1.0354 11.9141C1.57948 16.5274 5.0729 20.3061 9.36555 20.9203C11.889 21.2822 14.2576 20.6063 16.1526 19.2358L21.767 25.2618C22.4996 26.0481 23.6877 26.0481 24.4203 25.2618C25.1523 24.4744 25.1523 23.1957 24.4206 22.4104ZM4.66464 10.5448C4.66464 6.99169 7.35787 4.10106 10.6684 4.10106C13.9788 4.10106 16.6721 6.99169 16.6721 10.5448C16.6721 14.0979 13.9788 16.9886 10.6684 16.9886C7.35787 16.9886 4.66464 14.099 4.66464 10.5448Z" fill="white"/>
</svg>
