<svg width="16" height="17" viewBox="0 0 16 17" fill="none" xmlns="http://www.w3.org/2000/svg">
<path d="M3.37115 16.2017H0.248769V5.73413H3.37115V16.2017ZM1.80828 4.30626C0.809843 4.30626 0 3.44533 0 2.40592C7.14639e-09 1.90666 0.190515 1.42784 0.529633 1.0748C0.868751 0.72177 1.32869 0.523437 1.80828 0.523438C2.28787 0.523437 2.74781 0.72177 3.08693 1.0748C3.42605 1.42784 3.61656 1.90666 3.61656 2.40592C3.61656 3.44533 2.80638 4.30626 1.80828 4.30626ZM15.0572 16.2017H11.9416V11.1062C11.9416 9.89177 11.918 8.3344 10.3182 8.3344C8.69481 8.3344 8.44604 9.65379 8.44604 11.0187V16.2017H5.32702V5.73413H8.32165V7.16201H8.36536C8.78221 6.33958 9.80048 5.47165 11.3197 5.47165C14.4797 5.47165 15.0606 7.63796 15.0606 10.4517V16.2017H15.0572Z" fill="white"/>
</svg>
