<svg width="25" height="21" viewBox="0 0 25 21" fill="none" xmlns="http://www.w3.org/2000/svg">
<path d="M5.52541 20.2667H0.542509V6.73565H5.52541V20.2667ZM3.03128 4.8899C1.43791 4.8899 0.145508 3.77701 0.145508 2.43341C0.145508 1.78803 0.449543 1.16908 0.99073 0.71273C1.53192 0.256377 2.26592 0 3.03128 0C3.79663 0 4.53064 0.256377 5.07182 0.71273C5.61301 1.16908 5.91705 1.78803 5.91705 2.43341C5.91705 3.77701 4.62411 4.8899 3.03128 4.8899ZM24.1748 20.2667H19.2026V13.6799C19.2026 12.1101 19.1651 10.0969 16.6119 10.0969C14.0212 10.0969 13.6242 11.8024 13.6242 13.5668V20.2667H8.6467V6.73565H13.4257V8.58141H13.4955C14.1607 7.51829 15.7857 6.39636 18.2101 6.39636C23.2531 6.39636 24.1802 9.19666 24.1802 12.8339V20.2667H24.1748Z" fill="white"/>
</svg>
