<svg width="25" height="21" viewBox="0 0 25 21" fill="none" xmlns="http://www.w3.org/2000/svg">
<path d="M21.5309 13.6249V5.83749L15.508 2.28236L9.48515 5.83749V8.9573H7.76432V5.11196L15.508 0.444336L23.2517 5.11196V13.6249H21.5309ZM16.0816 7.21601H17.2288V6.24863H16.0816V7.21601ZM13.7872 7.21601H14.9344V6.24863H13.7872V7.21601ZM16.0816 9.15078H17.2288V8.1834H16.0816V9.15078ZM13.7872 9.15078H14.9344V8.1834H13.7872V9.15078ZM15.6801 20.711L6.76051 18.5586V19.9371H0.594238V10.4084H9.45647L16.77 12.7301C17.2862 12.8913 17.7212 13.1533 18.0749 13.5161C18.4286 13.8789 18.6055 14.3988 18.6055 15.076H21.8751C22.6781 15.076 23.3473 15.3178 23.8827 15.8015C24.418 16.2852 24.6857 16.9382 24.6857 17.7605V18.3893L15.6801 20.711ZM2.31506 18.486H5.01101V11.8595H2.31506V18.486ZM15.5654 19.2116L22.9075 17.3252C22.7928 17.0188 22.6494 16.8092 22.4773 16.6964C22.3053 16.5835 22.1045 16.5271 21.8751 16.5271H15.9382C15.3646 16.5271 14.834 16.4948 14.3465 16.4303C13.8589 16.3658 13.3952 16.2772 12.9555 16.1643L10.6324 15.5597L11.2633 14.157L13.357 14.7374C13.835 14.8664 14.2891 14.9551 14.7193 15.0034C15.1495 15.0518 15.8331 15.076 16.77 15.076C16.77 14.8825 16.7269 14.6931 16.6409 14.5077C16.5549 14.3222 16.4067 14.1892 16.1963 14.1086L9.16966 11.8595H6.76051V17.0349L15.5654 19.2116Z" fill="white"/>
</svg>
