<svg width="24" height="21" viewBox="0 0 24 21" fill="none" xmlns="http://www.w3.org/2000/svg">
<path d="M2.78332 20.8668V19.4849H21.1366V20.8668H2.78332ZM2.78332 1.98192V0.600098H21.1366V1.98192H2.78332ZM11.96 11.5625C12.8703 11.5625 13.6351 11.3015 14.2541 10.7795C14.8732 10.2575 15.1827 9.61262 15.1827 8.84495C15.1827 8.07727 14.8732 7.43242 14.2541 6.9104C13.6351 6.38838 12.8703 6.12737 11.96 6.12737C11.0496 6.12737 10.2849 6.38838 9.6658 6.9104C9.04674 7.43242 8.73721 8.07727 8.73721 8.84495C8.73721 9.61262 9.04674 10.2575 9.6658 10.7795C10.2849 11.3015 11.0496 11.5625 11.96 11.5625ZM2.45558 18.1031C2.0186 18.1031 1.63624 17.9649 1.3085 17.6886C0.980763 17.4122 0.816895 17.0898 0.816895 16.7213V4.74555C0.816895 4.34636 0.980763 4.01626 1.3085 3.75525C1.63624 3.49424 2.0186 3.36373 2.45558 3.36373H21.4643C21.9013 3.36373 22.2837 3.50192 22.6114 3.77828C22.9392 4.05464 23.103 4.37707 23.103 4.74555V16.7213C23.103 17.0898 22.9392 17.4122 22.6114 17.6886C22.2837 17.9649 21.9013 18.1031 21.4643 18.1031H2.45558ZM4.85899 16.7213C5.78758 15.754 6.88914 15.0286 8.16367 14.5449C9.4382 14.0613 10.7036 13.8195 11.96 13.8195C13.1981 13.8195 14.4681 14.0613 15.7699 14.5449C17.0718 15.0286 18.1688 15.754 19.0609 16.7213H21.4643V4.74555H2.45558V16.7213H4.85899ZM7.42626 16.7213H16.5483C15.9838 16.2607 15.3238 15.8922 14.5682 15.6159C13.8126 15.3395 12.9432 15.2013 11.96 15.2013C10.9767 15.2013 10.1164 15.3395 9.37903 15.6159C8.64162 15.8922 7.9907 16.2607 7.42626 16.7213ZM11.96 10.1807C11.523 10.1807 11.1543 10.0502 10.8538 9.78919C10.5534 9.52818 10.4032 9.21343 10.4032 8.84495C10.4032 8.47646 10.5534 8.16171 10.8538 7.9007C11.1543 7.63969 11.523 7.50919 11.96 7.50919C12.3969 7.50919 12.7656 7.63969 13.0661 7.9007C13.3665 8.16171 13.5167 8.47646 13.5167 8.84495C13.5167 9.21343 13.3665 9.52818 13.0661 9.78919C12.7656 10.0502 12.3969 10.1807 11.96 10.1807Z" fill="white"/>
</svg>
