<svg width="30" height="21" viewBox="0 0 30 21" fill="none" xmlns="http://www.w3.org/2000/svg">
<path d="M24.3042 7.81915L24.0038 6.83397C23.7813 6.7589 23.5532 6.65569 23.3195 6.52434C23.0858 6.39298 22.8911 6.25224 22.7353 6.10211L21.2666 6.55248L20.599 5.5673L21.7673 4.77915C21.7228 4.68532 21.6838 4.58211 21.6505 4.46952C21.6171 4.35693 21.6004 4.24434 21.6004 4.13174C21.6004 4.01915 21.6171 3.90656 21.6505 3.79397C21.6838 3.68137 21.7228 3.57816 21.7673 3.48434L20.599 2.69619L21.2666 1.711L22.7353 2.16137C22.8911 2.01125 23.0858 1.86582 23.3195 1.72508C23.5532 1.58434 23.7813 1.48582 24.0038 1.42952L24.3042 0.444336H25.5727L25.8731 1.42952C26.0957 1.48582 26.3238 1.58434 26.5574 1.72508C26.7911 1.86582 26.9858 2.01125 27.1416 2.16137L28.6103 1.711L29.2779 2.69619L28.1096 3.48434C28.1541 3.57816 28.1931 3.68137 28.2265 3.79397C28.2598 3.90656 28.2765 4.01915 28.2765 4.13174C28.2765 4.24434 28.2598 4.35693 28.2265 4.46952C28.1931 4.58211 28.1541 4.68532 28.1096 4.77915L29.2779 5.5673L28.6103 6.55248L27.1416 6.10211C26.9858 6.25224 26.7911 6.39298 26.5574 6.52434C26.3238 6.65569 26.0957 6.7589 25.8731 6.83397L25.5727 7.81915H24.3042ZM24.9385 5.76434C25.4948 5.76434 25.9566 5.60952 26.3238 5.29989C26.6909 4.99026 26.8745 4.60088 26.8745 4.13174C26.8745 3.66261 26.6909 3.27322 26.3238 2.9636C25.9566 2.65397 25.4948 2.49915 24.9385 2.49915C24.3821 2.49915 23.9203 2.65397 23.5532 2.9636C23.186 3.27322 23.0024 3.66261 23.0024 4.13174C23.0024 4.60088 23.186 4.99026 23.5532 5.29989C23.9203 5.60952 24.3821 5.76434 24.9385 5.76434ZM20.6991 13.9273L20.6323 13.111C20.4766 13.0359 20.3152 12.9515 20.1483 12.8577C19.9814 12.7638 19.8312 12.67 19.6977 12.5762L18.8298 12.9703L18.0954 12.0695L18.9633 11.5347C18.9188 11.4596 18.8965 11.3893 18.8965 11.3236C18.8965 11.2579 18.8965 11.1875 18.8965 11.1125C18.8965 11.0374 18.8965 10.9671 18.8965 10.9014C18.8965 10.8357 18.9188 10.7653 18.9633 10.6903L18.0954 10.1554L18.8298 9.25471L19.6977 9.64878C19.8535 9.55495 20.0092 9.46113 20.165 9.3673C20.3208 9.27347 20.4766 9.18903 20.6323 9.11397L20.6991 8.29767H22.0343L22.1011 9.11397C22.2569 9.18903 22.4126 9.27347 22.5684 9.3673C22.7242 9.46113 22.88 9.55495 23.0358 9.64878L23.9037 9.25471L24.638 10.1554L23.7701 10.6903C23.8146 10.7653 23.8369 10.8357 23.8369 10.9014C23.8369 10.9671 23.8369 11.0374 23.8369 11.1125C23.8369 11.1875 23.8369 11.2579 23.8369 11.3236C23.8369 11.3893 23.8146 11.4596 23.7701 11.5347L24.638 12.0695L23.9037 12.9703L23.0358 12.5762C22.9022 12.67 22.752 12.7638 22.5851 12.8577C22.4182 12.9515 22.2569 13.0359 22.1011 13.111L22.0343 13.9273H20.6991ZM21.3667 12.1821C21.7228 12.1821 22.0232 12.0789 22.268 11.8725C22.5128 11.6661 22.6352 11.4127 22.6352 11.1125C22.6352 10.8122 22.5128 10.5589 22.268 10.3525C22.0232 10.1461 21.7228 10.0429 21.3667 10.0429C21.0107 10.0429 20.7102 10.1461 20.4654 10.3525C20.2206 10.5589 20.0982 10.8122 20.0982 11.1125C20.0982 11.4127 20.2206 11.6661 20.4654 11.8725C20.7102 12.0789 21.0107 12.1821 21.3667 12.1821ZM10.6181 12.1258C9.14938 12.1258 7.94767 11.7224 7.01301 10.9154C6.07835 10.1085 5.61102 9.10458 5.61102 7.9036H5.27721C5.09918 7.9036 4.94341 7.8473 4.80989 7.73471C4.67636 7.62211 4.6096 7.49076 4.6096 7.34063C4.6096 7.19051 4.67636 7.05915 4.80989 6.94656C4.94341 6.83396 5.09918 6.77767 5.27721 6.77767H5.61102C5.61102 6.02705 5.83356 5.3515 6.27864 4.751C6.72371 4.15051 7.30231 3.66261 8.01443 3.2873V4.38508C8.01443 4.49767 8.0645 4.59619 8.16465 4.68063C8.26479 4.76508 8.38162 4.8073 8.51514 4.8073C8.67092 4.8073 8.79332 4.76508 8.88233 4.68063C8.97135 4.59619 9.01585 4.49767 9.01585 4.38508V2.92137C9.19389 2.88384 9.43868 2.851 9.75023 2.82285C10.0618 2.79471 10.3622 2.78063 10.6515 2.78063C10.9408 2.78063 11.2412 2.79471 11.5528 2.82285C11.8643 2.851 12.1091 2.88384 12.2872 2.92137V4.38508C12.2872 4.49767 12.3317 4.59619 12.4207 4.68063C12.5097 4.76508 12.6321 4.8073 12.7879 4.8073C12.9214 4.8073 13.0382 4.76508 13.1384 4.68063C13.2385 4.59619 13.2886 4.49767 13.2886 4.38508V3.2873C14.0007 3.66261 14.5682 4.15051 14.991 4.751C15.4138 5.3515 15.6252 6.02705 15.6252 6.77767H15.959C16.1371 6.77767 16.2928 6.83396 16.4264 6.94656C16.5599 7.05915 16.6267 7.19051 16.6267 7.34063C16.6267 7.49076 16.5599 7.62211 16.4264 7.73471C16.2928 7.8473 16.1371 7.9036 15.959 7.9036H15.6252C15.6252 9.10458 15.1579 10.1085 14.2232 10.9154C13.2886 11.7224 12.0869 12.1258 10.6181 12.1258ZM10.6181 10.4369C11.5528 10.4369 12.2872 10.2024 12.8213 9.73322C13.3553 9.26409 13.6224 8.65421 13.6224 7.9036H7.61386C7.61386 8.65421 7.88091 9.26409 8.415 9.73322C8.94909 10.2024 9.68347 10.4369 10.6181 10.4369ZM0.0698242 20.711V18.1214C0.0698242 17.4833 0.247855 16.9532 0.603916 16.531C0.959977 16.1088 1.46069 15.7663 2.10605 15.5036C3.30775 15.0157 4.59291 14.6122 5.96152 14.2932C7.33013 13.9742 8.88233 13.8147 10.6181 13.8147C12.3539 13.8147 13.9061 13.9742 15.2747 14.2932C16.6433 14.6122 17.9285 15.0157 19.1302 15.5036C19.7756 15.7663 20.2763 16.1088 20.6323 16.531C20.9884 16.9532 21.1664 17.4833 21.1664 18.1214V20.711H0.0698242ZM2.07267 19.0221H19.1636V18.1214C19.1636 17.8399 19.069 17.61 18.8799 17.4317C18.6907 17.2535 18.4626 17.1174 18.1956 17.0236C17.2386 16.6671 16.1705 16.3246 14.991 15.9962C13.8116 15.6678 12.3539 15.5036 10.6181 15.5036C8.88233 15.5036 7.42471 15.6678 6.24526 15.9962C5.0658 16.3246 3.99762 16.6671 3.04071 17.0236C2.77366 17.1174 2.54556 17.2535 2.3564 17.4317C2.16725 17.61 2.07267 17.8399 2.07267 18.1214V19.0221Z" fill="white"/>
</svg>
