<svg width="12" height="13" viewBox="0 0 12 13" fill="none" xmlns="http://www.w3.org/2000/svg">
<path d="M6 0C2.68548 0 0 2.72705 0 6.09287C0 9.45869 2.68548 12.1857 6 12.1857C9.31452 12.1857 12 9.45869 12 6.09287C12 2.72705 9.31452 0 6 0ZM7.38145 8.60127L5.24758 7.02646C5.17258 6.96995 5.12903 6.8815 5.12903 6.78815V2.65335C5.12903 2.4912 5.25968 2.35853 5.41935 2.35853H6.58064C6.74032 2.35853 6.87097 2.4912 6.87097 2.65335V6.03636L8.40726 7.17141C8.5379 7.26722 8.56452 7.45148 8.47016 7.58415L7.7879 8.53739C7.69355 8.6676 7.5121 8.69708 7.38145 8.60127Z" fill="#2167A7"/>
</svg>
