<svg width="22" height="19" viewBox="0 0 22 19" fill="none" xmlns="http://www.w3.org/2000/svg">
<path d="M19.3192 5.05705C19.3329 5.25601 19.3329 5.45501 19.3329 5.65396C19.3329 11.7225 14.8961 18.7148 6.78691 18.7148C4.28862 18.7148 1.96784 17.9615 0.015625 16.6541C0.370584 16.6967 0.711844 16.7109 1.08046 16.7109C3.14185 16.7109 5.03947 15.9861 6.55483 14.7497C4.61627 14.707 2.9917 13.3853 2.43197 11.5662C2.70503 11.6088 2.97805 11.6372 3.26476 11.6372C3.66065 11.6372 4.05658 11.5803 4.42515 11.4809C2.4047 11.0545 0.889303 9.20696 0.889303 6.97567V6.91885C1.47631 7.25994 2.15895 7.47311 2.88245 7.5015C1.69474 6.67719 0.916617 5.27022 0.916617 3.67847C0.916617 2.82576 1.13501 2.0441 1.51728 1.36192C3.68792 4.14747 6.95071 5.96658 10.6094 6.16558C10.5411 5.82449 10.5001 5.46922 10.5001 5.11392C10.5001 2.58415 12.466 0.523438 14.9097 0.523438C16.1793 0.523438 17.326 1.0777 18.1315 1.97306C19.128 1.7741 20.0837 1.39036 20.9301 0.864528C20.6024 1.93045 19.9062 2.82581 18.9916 3.39425C19.8789 3.29481 20.739 3.03894 21.5308 2.68368C20.9302 3.59321 20.1793 4.40326 19.3192 5.05705Z" fill="white"/>
</svg>
