<svg width="22" height="23" viewBox="0 0 22 23" fill="none" xmlns="http://www.w3.org/2000/svg">
<path d="M21.0938 19.057H0.78125C0.57405 19.057 0.375336 19.1407 0.228823 19.2896C0.0823101 19.4385 0 19.6405 0 19.851L0 21.4391C0 21.6497 0.0823101 21.8517 0.228823 22.0006C0.375336 22.1495 0.57405 22.2332 0.78125 22.2332H21.0938C21.301 22.2332 21.4997 22.1495 21.6462 22.0006C21.7927 21.8517 21.875 21.6497 21.875 21.4391V19.851C21.875 19.6405 21.7927 19.4385 21.6462 19.2896C21.4997 19.1407 21.301 19.057 21.0938 19.057ZM21.0938 12.7047H0.78125C0.57405 12.7047 0.375336 12.7883 0.228823 12.9372C0.0823101 13.0862 0 13.2881 0 13.4987L0 15.0868C0 15.2974 0.0823101 15.4994 0.228823 15.6483C0.375336 15.7972 0.57405 15.8808 0.78125 15.8808H21.0938C21.301 15.8808 21.4997 15.7972 21.6462 15.6483C21.7927 15.4994 21.875 15.2974 21.875 15.0868V13.4987C21.875 13.2881 21.7927 13.0862 21.6462 12.9372C21.4997 12.7883 21.301 12.7047 21.0938 12.7047ZM21.0938 6.35234H0.78125C0.57405 6.35234 0.375336 6.43599 0.228823 6.58491C0.0823101 6.73382 0 6.93578 0 7.14638L0 8.73446C0 8.94505 0.0823101 9.14702 0.228823 9.29593C0.375336 9.44485 0.57405 9.5285 0.78125 9.5285H21.0938C21.301 9.5285 21.4997 9.44485 21.6462 9.29593C21.7927 9.14702 21.875 8.94505 21.875 8.73446V7.14638C21.875 6.93578 21.7927 6.73382 21.6462 6.58491C21.4997 6.43599 21.301 6.35234 21.0938 6.35234ZM21.0938 0H0.78125C0.57405 0 0.375336 0.0836577 0.228823 0.232569C0.0823101 0.381481 0 0.583449 0 0.794042L0 2.38213C0 2.59272 0.0823101 2.79469 0.228823 2.9436C0.375336 3.09251 0.57405 3.17617 0.78125 3.17617H21.0938C21.301 3.17617 21.4997 3.09251 21.6462 2.9436C21.7927 2.79469 21.875 2.59272 21.875 2.38213V0.794042C21.875 0.583449 21.7927 0.381481 21.6462 0.232569C21.4997 0.0836577 21.301 0 21.0938 0Z" fill="#0054A6"/>
</svg>
