<svg width="19" height="20" viewBox="0 0 19 20" fill="none" xmlns="http://www.w3.org/2000/svg">
<path d="M19.0008 17.6572C19.0008 18.6429 18.2332 19.442 17.2863 19.442H2.42738C1.48048 19.442 0.712891 18.6429 0.712891 17.6572V7.86747C0.712894 7.59681 0.772022 7.32971 0.885803 7.08635C0.999584 6.843 1.16504 6.62977 1.36965 6.46279C2.2595 5.73662 2.99487 5.14777 7.23462 1.9445C7.83559 1.48836 9.02805 0.390789 9.85683 0.403804C10.6854 0.390641 11.8783 1.48854 12.479 1.94446C16.7183 5.1474 17.4547 5.73707 18.344 6.46279C18.5486 6.62977 18.7141 6.843 18.8278 7.08635C18.9416 7.32971 19.0008 7.59681 19.0008 7.86747V17.6572ZM16.6553 10.3466C16.5637 10.208 16.3802 10.1757 16.2503 10.2757C15.4343 10.9031 14.2692 11.7893 12.479 13.1418C11.8781 13.5979 10.6856 14.6954 9.85683 14.6823C9.02776 14.6951 7.83662 13.5987 7.23462 13.1418C5.44463 11.7894 4.27949 10.9032 3.46339 10.2757C3.33341 10.1757 3.14993 10.208 3.05838 10.3466L2.73434 10.8373C2.69234 10.9008 2.67571 10.9789 2.68797 11.055C2.70023 11.1311 2.74041 11.1992 2.80003 11.2451C3.61752 11.8734 4.78076 12.7581 6.56129 14.1033C7.28545 14.653 8.58025 15.8812 9.85683 15.8723C11.1328 15.8813 12.4272 14.6537 13.1523 14.1033C14.9329 12.7581 16.0962 11.8734 16.9136 11.2451C16.9732 11.1992 17.0134 11.1311 17.0256 11.055C17.0379 10.9789 17.0213 10.9008 16.9793 10.8373L16.6553 10.3466Z" fill="white"/>
</svg>
