<svg width="28" height="21" viewBox="0 0 28 21" fill="none" xmlns="http://www.w3.org/2000/svg">
<path d="M13.5666 20.2667L19.0043 8.10667H21.4678L27.0558 20.2667H24.4421L23.2103 17.0747H17.4421L16.0301 20.2667H13.5666ZM18.1031 15.3013H22.3691L20.2661 10.3867H20.2061L18.1031 15.3013ZM4.10317 17.2267L2.45082 15.8333L8.57953 10.6653C7.81845 9.92222 7.14249 9.17489 6.55165 8.42334C5.96081 7.67178 5.44508 6.89067 5.00445 6.08H7.61816C7.95865 6.63733 8.33418 7.16511 8.74477 7.66334C9.15535 8.16156 9.62101 8.67245 10.1417 9.196C11.043 8.40222 11.7941 7.57889 12.395 6.726C12.9958 5.87311 13.5065 4.98222 13.9271 4.05333H0.498047V2.02667H8.91V0H11.3134V2.02667H19.7254V4.05333H16.3305C15.8899 5.21867 15.3041 6.36289 14.573 7.486C13.842 8.60911 12.9457 9.67734 11.8842 10.6907L14.8284 13.1987L13.9271 15.2507L10.1117 12.16L4.10317 17.2267Z" fill="white"/>
</svg>
