<svg width="18" height="18" viewBox="0 0 18 18" fill="none" xmlns="http://www.w3.org/2000/svg">
<path d="M17.5258 16.3802C17.5258 17.2748 16.8129 18 15.9334 18H2.13325C1.25382 18 0.540926 17.2748 0.540926 16.3802V7.49544C0.540929 7.24981 0.595844 7.00739 0.701518 6.78654C0.807192 6.56568 0.960857 6.37216 1.15089 6.22062C1.97734 5.56158 2.66032 5.02717 6.59798 2.12002C7.15612 1.70605 8.26362 0.709942 9.03334 0.721754C9.8029 0.709807 10.9108 1.70621 11.4687 2.11998C15.406 5.02683 16.0899 5.56199 16.9158 6.22062C17.1058 6.37216 17.2595 6.56568 17.3652 6.78654C17.4708 7.00739 17.5258 7.24981 17.5258 7.49544V16.3802ZM15.3474 9.74537C15.2624 9.61956 15.092 9.5903 14.9712 9.68102C14.2134 10.2504 13.1314 11.0547 11.4687 12.2822C10.9106 12.6961 9.80307 13.6922 9.03334 13.6803C8.26335 13.6919 7.15708 12.6968 6.59798 12.2822C4.93552 11.0548 3.8534 10.2505 3.09545 9.68102C2.97473 9.5903 2.80432 9.61956 2.7193 9.74537L2.41835 10.1907C2.37934 10.2484 2.3639 10.3192 2.37528 10.3883C2.38666 10.4573 2.42398 10.5192 2.47935 10.5608C3.2386 11.1311 4.31896 11.9339 5.97262 13.1548C6.64518 13.6537 7.84772 14.7684 9.03334 14.7603C10.2184 14.7684 11.4205 13.6544 12.094 13.1548C13.7477 11.9339 14.8281 11.131 15.5873 10.5608C15.6427 10.5192 15.68 10.4573 15.6914 10.3883C15.7028 10.3192 15.6873 10.2484 15.6483 10.1907L15.3474 9.74537Z" fill="#2167A7"/>
</svg>
