<svg width="22" height="21" viewBox="0 0 22 21" fill="none" xmlns="http://www.w3.org/2000/svg">
<path d="M11.3768 12.7732C11.6438 12.7732 11.8664 12.6982 12.0444 12.548C12.2224 12.3979 12.3114 12.2103 12.3114 11.9851C12.3114 11.7599 12.2224 11.5722 12.0444 11.4221C11.8664 11.272 11.6438 11.1969 11.3768 11.1969C11.1097 11.1969 10.8872 11.272 10.7092 11.4221C10.5311 11.5722 10.4421 11.7599 10.4421 11.9851C10.4421 12.2103 10.5311 12.3979 10.7092 12.548C10.8872 12.6982 11.1097 12.7732 11.3768 12.7732ZM10.7425 10.2399H12.011C12.011 9.95841 12.0388 9.7473 12.0945 9.60656C12.1501 9.46582 12.2781 9.29224 12.4783 9.08582C12.5674 9.01076 12.6675 8.91693 12.7788 8.80434C12.89 8.69174 13.0013 8.58853 13.1126 8.49471C13.4241 8.19446 13.6467 7.92705 13.7802 7.69248C13.9137 7.45792 13.9805 7.20927 13.9805 6.94656C13.9805 6.36483 13.7524 5.89569 13.2962 5.53915C12.84 5.18261 12.2335 5.00434 11.4769 5.00434C10.8316 5.00434 10.2697 5.14039 9.79119 5.41248C9.31274 5.68458 8.97337 6.06458 8.77308 6.55248L9.94141 6.94656C10.0527 6.62755 10.2418 6.38829 10.5089 6.22878C10.7759 6.06927 11.0764 5.98952 11.4102 5.98952C11.7885 5.98952 12.1 6.08804 12.3448 6.28508C12.5896 6.48211 12.712 6.73076 12.712 7.031C12.712 7.19989 12.6619 7.36409 12.5618 7.5236C12.4616 7.6831 12.3003 7.85668 12.0778 8.04434C11.8997 8.19446 11.7273 8.32582 11.5604 8.43841C11.3935 8.551 11.2544 8.68236 11.1431 8.83248C11.0096 9.00137 10.9094 9.19372 10.8427 9.40952C10.7759 9.62532 10.7425 9.90211 10.7425 10.2399ZM6.97053 20.711V17.1362H4.6005C4.06641 17.1362 3.59908 16.9673 3.19851 16.6295C2.79794 16.2917 2.59765 15.8977 2.59765 15.4473V12.3229H1.26243C0.817351 12.3229 0.483544 12.1493 0.261006 11.8021C0.0384684 11.455 0.0495955 11.0843 0.294387 10.6903L2.59765 7.19989C3.17625 5.15446 4.31676 3.51718 6.01918 2.28804C7.72159 1.0589 9.71887 0.444336 12.011 0.444336C14.5702 0.444336 16.7678 1.21841 18.6037 2.76656C20.4396 4.31471 21.3576 6.16779 21.3576 8.32582C21.3576 9.92088 20.8346 11.3283 19.7887 12.548C18.7428 13.7678 17.3185 14.7436 15.516 15.4754V20.711H6.97053ZM8.97337 19.0221H13.5131V14.3777L14.4478 14.0117C15.9388 13.43 17.1294 12.6372 18.0195 11.6332C18.9097 10.6293 19.3548 9.5268 19.3548 8.32582C19.3548 6.61816 18.6371 5.15915 17.2017 3.94878C15.7663 2.73841 14.0361 2.13322 12.011 2.13322C10.0304 2.13322 8.3447 2.6915 6.95384 3.80804C5.56297 4.92458 4.81191 6.16779 4.70064 7.53767L2.66442 10.634H4.6005V15.4473H8.97337V19.0221Z" fill="white"/>
</svg>
