<svg width="25" height="21" viewBox="0 0 25 21" fill="none" xmlns="http://www.w3.org/2000/svg">
<path d="M12.2339 4.93722C8.82301 4.93722 6.07181 7.25715 6.07181 10.1333C6.07181 13.0095 8.82301 15.3295 12.2339 15.3295C15.6447 15.3295 18.3959 13.0095 18.3959 10.1333C18.3959 7.25715 15.6447 4.93722 12.2339 4.93722ZM12.2339 13.5115C10.0297 13.5115 8.22772 11.9965 8.22772 10.1333C8.22772 8.27015 10.0243 6.75518 12.2339 6.75518C14.4434 6.75518 16.24 8.27015 16.24 10.1333C16.24 11.9965 14.438 13.5115 12.2339 13.5115V13.5115ZM20.0852 4.72467C20.0852 5.39849 19.4417 5.93664 18.648 5.93664C17.8489 5.93664 17.2107 5.39397 17.2107 4.72467C17.2107 4.05537 17.8542 3.51269 18.648 3.51269C19.4417 3.51269 20.0852 4.05537 20.0852 4.72467ZM24.1664 5.95473C24.0753 4.33123 23.6355 2.89314 22.2251 1.7083C20.82 0.523456 19.1145 0.152627 17.1892 0.0712262C15.2049 -0.0237421 9.25741 -0.0237421 7.27311 0.0712262C5.35317 0.148105 3.64775 0.518933 2.23729 1.70377C0.826826 2.88862 0.392426 4.32671 0.295892 5.95021C0.18327 7.62346 0.18327 12.6387 0.295892 14.3119C0.387063 15.9354 0.826826 17.3735 2.23729 18.5584C3.64775 19.7432 5.34781 20.114 7.27311 20.1954C9.25741 20.2904 15.2049 20.2904 17.1892 20.1954C19.1145 20.1186 20.82 19.7477 22.2251 18.5584C23.6302 17.3735 24.0699 15.9354 24.1664 14.3119C24.2791 12.6387 24.2791 7.62798 24.1664 5.95473V5.95473ZM21.603 16.1073C21.1846 16.9937 20.3748 17.6765 19.3183 18.0338C17.7363 18.5629 13.9822 18.4408 12.2339 18.4408C10.4855 18.4408 6.72609 18.5584 5.14938 18.0338C4.09823 17.681 3.28843 16.9982 2.86475 16.1073C2.23729 14.7732 2.38209 11.6076 2.38209 10.1333C2.38209 8.65907 2.24265 5.48894 2.86475 4.15938C3.28306 3.27301 4.09287 2.59014 5.14938 2.23288C6.73145 1.70377 10.4855 1.82588 12.2339 1.82588C13.9822 1.82588 17.7416 1.7083 19.3183 2.23288C20.3695 2.58562 21.1793 3.26849 21.603 4.15938C22.2304 5.49346 22.0856 8.65907 22.0856 10.1333C22.0856 11.6076 22.2304 14.7777 21.603 16.1073Z" fill="white"/>
</svg>
